<?xml version="1.0" encoding="utf-8"?>
<!-- Generator: Adobe Illustrator 27.8.1, SVG Export Plug-In . SVG Version: 6.00 Build 0)  -->
<svg version="1.1" id="Layer_1" xmlns="http://www.w3.org/2000/svg" xmlns:xlink="http://www.w3.org/1999/xlink" x="0px" y="0px"
	 viewBox="0 0 250 250" style="enable-background:new 0 0 250 250;" xml:space="preserve">
<path d="M116.8,0.1c-0.5,0-2.2,0.2-3.8,0.3C77.5,3.6,44.3,22.8,23.2,52.2C11.5,68.6,4,87.2,1.1,106.8c-1,6.9-1.1,8.9-1.1,18.2
	s0.1,11.3,1.1,18.2c6.8,46.9,40.2,86.4,85.5,101c8.1,2.6,16.7,4.4,26.4,5.5c3.8,0.4,20.2,0.4,23.9,0c16.8-1.9,31-6,45-13.2
	c2.2-1.1,2.6-1.4,2.3-1.6c-0.2-0.1-9.4-12.4-20.4-27.3l-20-27l-25-37.1c-13.8-20.4-25.1-37-25.2-37c-0.1,0-0.2,16.4-0.2,36.6
	c-0.1,35.2-0.1,36.6-0.5,37.5c-0.6,1.2-1.1,1.7-2.2,2.2c-0.8,0.4-1.5,0.5-5.2,0.5h-4.2l-1.1-0.7c-0.7-0.5-1.3-1.1-1.6-1.8l-0.5-1.1
	l0-49l0.1-49l0.8-1c0.4-0.5,1.2-1.2,1.8-1.5c1-0.5,1.4-0.5,5.6-0.5c5,0,5.8,0.2,7.1,1.6c0.4,0.4,13.9,20.8,30.2,45.4
	s38.4,58.2,49.3,74.7l19.8,30l1-0.7c8.9-5.8,18.3-14,25.7-22.5c15.8-18.2,26-40.3,29.4-63.9c1-6.9,1.1-8.9,1.1-18.2
	c0-9.3-0.1-11.3-1.1-18.2c-6.8-46.9-40.2-86.4-85.5-101c-8-2.6-16.5-4.4-26-5.4C135,0.1,118.8-0.1,116.8,0.1L116.8,0.1z M168,75.7
	c1.2,0.6,2.1,1.7,2.5,2.9c0.2,0.6,0.2,14.2,0.2,44.8l-0.1,43.9l-7.7-11.9l-7.8-11.9v-31.9c0-20.6,0.1-32.3,0.2-32.8
	c0.4-1.4,1.2-2.4,2.4-3.1c1-0.5,1.4-0.6,5.2-0.6C166.5,75.2,167.2,75.2,168,75.7L168,75.7z"/>
</svg>
