<?xml version="1.0" encoding="utf-8"?>
<!-- Generator: Adobe Illustrator 27.8.1, SVG Export Plug-In . SVG Version: 6.00 Build 0)  -->
<svg version="1.1" id="Layer_1" xmlns="http://www.w3.org/2000/svg" xmlns:xlink="http://www.w3.org/1999/xlink" x="0px" y="0px"
	 viewBox="0 0 250 250" style="enable-background:new 0 0 250 250;" xml:space="preserve">
<style type="text/css">
	.st0{fill:#E44F26;}
	.st1{fill:#F1662A;}
	.st2{fill:#EBEBEB;}
	.st3{fill:#FFFFFF;}
	.st4{fill:#1172B8;}
	.st5{fill:#33AADD;}
</style>
<g>
	<polygon class="st0" points="16.3,182.9 0,0 179.2,0 162.8,182.9 89.5,203.2 	"/>
	<polygon class="st1" points="89.6,187.7 148.9,171.2 162.8,15 89.6,15 	"/>
	<polygon class="st2" points="89.6,82.8 59.9,82.8 57.9,59.8 89.6,59.8 89.6,37.4 89.5,37.4 33.3,37.4 33.9,43.4 39.4,105.2 
		89.6,105.2 	"/>
	<polygon class="st2" points="89.6,141 89.5,141.1 64.5,134.3 62.9,116.4 50.8,116.4 40.4,116.4 43.5,151.6 89.5,164.4 89.6,164.4 	
		"/>
	<polygon class="st3" points="89.5,82.8 89.5,105.2 117.1,105.2 114.5,134.3 89.5,141.1 89.5,164.4 135.5,151.6 135.8,147.9 
		141.1,88.8 141.6,82.8 135.6,82.8 	"/>
	<polygon class="st3" points="89.5,37.4 89.5,51.3 89.5,59.8 89.5,59.8 143.6,59.8 143.6,59.8 143.7,59.8 144.1,54.8 145.2,43.4 
		145.7,37.4 	"/>
</g>
<g>
	<path class="st4" d="M116.6,231.8L104.4,80.2H250l-12.1,151.6L177.2,250L116.6,231.8z"/>
	<path class="st5" d="M237.9,92.3h-60.7v148.6l48.5-15.2L237.9,92.3z"/>
	<path class="st3" d="M198.4,168.1h-60.7l-3-21.2l48.5-15.2h-48.5l-3-18.2h94l-3,21.2l-39.4,15.2h36.4l-6.1,57.6l-36.4,12.1
		l-36.4-12.1l-3-30.3H156l3,15.2l18.2,6.1l18.2-6.1L198.4,168.1z"/>
</g>
</svg>
