<?xml version="1.0" encoding="utf-8"?>
<!-- Generator: Adobe Illustrator 27.8.1, SVG Export Plug-In . SVG Version: 6.00 Build 0)  -->
<svg version="1.1" id="Layer_1" xmlns="http://www.w3.org/2000/svg" xmlns:xlink="http://www.w3.org/1999/xlink" x="0px" y="0px"
	 viewBox="0 0 250 250" style="enable-background:new 0 0 250 250;" xml:space="preserve">
<style type="text/css">
	.st0{fill:#F7DF1E;}
</style>
<g>
	<path class="st0" d="M-0.2-0.2h250.4v250.4H-0.2V-0.2z"/>
	<path d="M65.6,209.1l19.2-11.6c3.7,6.6,7.1,12.1,15.1,12.1c7.7,0,12.6-3,12.6-14.8v-80h23.5v80.4c0,24.4-14.3,35.5-35.1,35.5
		C82.1,230.6,71.2,220.8,65.6,209.1"/>
	<path d="M148.9,206.5l19.2-11.1c5,8.2,11.6,14.3,23.2,14.3c9.8,0,16-4.9,16-11.6c0-8.1-6.4-10.9-17.1-15.6l-5.9-2.5
		c-17-7.2-28.2-16.3-28.2-35.5c0-17.7,13.4-31.1,34.5-31.1c15,0,25.7,5.2,33.5,18.8L205.5,144c-4-7.2-8.4-10.1-15.1-10.1
		c-6.9,0-11.3,4.4-11.3,10.1c0,7.1,4.4,9.9,14.5,14.3l5.9,2.5c20,8.6,31.3,17.3,31.3,37c0,21.2-16.6,32.8-39,32.8
		C169.9,230.6,155.7,220.2,148.9,206.5"/>
</g>
</svg>
