<?xml version="1.0" encoding="utf-8"?>
<!-- Generator: Adobe Illustrator 27.8.1, SVG Export Plug-In . SVG Version: 6.00 Build 0)  -->
<svg version="1.1" id="Layer_1" xmlns="http://www.w3.org/2000/svg" xmlns:xlink="http://www.w3.org/1999/xlink" x="0px" y="0px"
	 viewBox="0 0 250 171.9" style="enable-background:new 0 0 250 171.9;" xml:space="preserve">
<style type="text/css">
	.st0{fill:#E3E3F5;}
	.st1{fill:#999ADA;}
</style>
<path d="M149.9,21.6C149.9,21.6,149.8,21.6,149.9,21.6s0.1,0,0.1,0H149.9z"/>
<g>
	<path class="st0" d="M0,171.9c0.7-2.1,2.8-7,6.3-14.6c3.5-7.6,8.2-17.7,14.1-30.5c5.9-12.7,12.9-27.8,21-45.3
		c8.1-17.5,17.1-37.1,27-59c0.6-1.1,1-2.3,1.4-3.6c0.4-1.3,0.5-2.4,0.5-3.4c0-1.4-0.4-2.6-1.3-3.4c-0.9-0.9-2.5-1.3-4.9-1.3
		c-6,0-10.8,1.8-14.6,5.4c-3.8,3.6-6.5,8.1-8.3,13.3c-1.8,5.3-2.7,10.4-2.7,15.5c0,1.3,0.1,2.8,0.2,4.5c0.1,1.7,0.4,3.6,0.6,5.8
		c-3.4,0-6.2-1-8.4-3.1c-2.2-2.1-3.9-4.6-5-7.7c-1.1-3.1-1.7-5.9-1.7-8.6c0-4.5,1.3-8.9,3.9-13.2c2.6-4.3,6.1-8.1,10.3-11.6
		c4.3-3.5,9-6.2,14.2-8.2C57.9,1,63,0,68.2,0c5.3,0,9.7,1.5,13.4,4.4c3.7,2.9,6.5,8.2,8.5,15.8c2,7.6,3,18.5,3,32.7
		c0,9.2-0.3,18.6-1,28c-0.6,9.4-1.3,18.3-2,26.5c-0.7,8.2-1.1,15.3-1.1,21.1c2.8-8.4,6.4-17.3,10.5-26.7c4.2-9.4,8.7-18.8,13.5-28.1
		c4.8-9.3,9.6-18.1,14.3-26.3c4.7-8.2,8.9-15.4,12.7-21.6c3.8-6.2,6.6-10.8,8.6-13.7c2-3.1,3.8-5.5,5.3-7c1.6-1.6,3.7-2.3,6.4-2.3
		c2,0,5.1,0.8,9.4,2.3c-1.3,2.7-2.8,7-4.5,12.9c-1.7,5.9-3.6,12.7-5.5,20.6c-2.1,8.5-4.3,17.9-6.4,28c-2.1,10.2-4,20.4-5.8,30.8
		c-1.7,10.4-3.1,20.2-4.2,29.5c-1.1,9.3-1.6,17.5-1.6,24.6c0,3.7,0.2,6.6,0.5,8.7c0.4,2.1,0.9,4,1.5,5.6c0.6,1.6,1.4,3.7,2.2,6.3
		c-6.1,0-10.8-0.9-13.9-2.8c-3.2-1.8-5.3-4.8-6.4-8.8c-1.1-4-1.6-9.4-1.6-16.1c0-15.8,1.8-32.3,5.4-49.7
		c3.6-17.4,7.8-35.3,12.7-53.8c-4,5.7-8.1,12.4-12.4,20.2c-4.3,7.8-8.4,16-12.6,24.7c-4.1,8.7-8,17.2-11.7,25.7
		c-3.7,8.4-7,16.3-9.8,23.4c-2.8,7.2-5,13.2-6.6,18c-1.3,0.4-2.2,0.7-2.7,0.9c-0.5,0.1-1.1,0.2-1.8,0.2c-5,0-8.1-3-9.5-9.1
		c-1.4-6-2-14.3-2-24.8c0-5.5,0.1-11.5,0.2-17.8c0.1-6.3,0.4-12.8,0.6-19.4c0.3-6.6,0.5-13.2,0.6-19.7c0.1-6.5,0.2-12.8,0.2-18.7
		c0-2.1,0-4.3-0.1-6.4c-0.1-2.1-0.1-4.2-0.1-6.2C64,56.9,54.8,78.3,47.4,96.2c-7.5,17.8-13.8,32.3-19.1,43.4
		c-5.3,11.1-10.1,19.3-14.5,24.5C9.4,169.3,4.8,171.9,0,171.9z"/>
	<path class="st1" d="M250,6.9c-4.3,4-9.6,6.9-16.1,8.6c-6.5,1.8-13.2,2.9-20.3,3.3c-6.6,0.4-12.9,0.6-18.9,0.6
		c-1.6,5.5-3.3,11.8-5.1,18.9c-2.1,8.5-4.3,17.9-6.4,28c-2.1,10.2-4,20.4-5.7,30.8c-1.7,10.4-3.1,20.2-4.1,29.5
		c-1.1,9.3-1.6,17.5-1.6,24.6c0,3.7,0.2,6.6,0.5,8.7c0.4,2.1,0.8,4,1.5,5.6c0.6,1.6,1.4,3.7,2.2,6.3c-6.1,0-10.8-0.9-13.9-2.8
		c-3.2-1.8-5.3-4.8-6.4-8.8c-1.1-4.1-1.6-9.4-1.6-16.1c0-15.8,1.8-32.3,5.4-49.7c3.6-17.4,7.8-34.6,12.7-53.8l9.6-31.5
		c0.6-2.1,2-3.9,3.9-5.1c1.4-0.9,3-1.5,4.3-1.5h0c0.1,0,0.2,0,0.2,0h0.2c4.8,0,9.3,0.5,13.7,1c4.5,0.4,8.8,0.8,13.1,1.3
		c8.9,0.9,16.1,1.4,21.4,1.7C243.9,6.8,247.7,6.9,250,6.9z"/>
</g>
</svg>
